<svg id="visual" viewBox="0 0 2000 1500" width="2000" height="1500" xmlns="http://www.w3.org/2000/svg" xmlns:xlink="http://www.w3.org/1999/xlink" version="1.1"><path d="M0 1302L47.7 1295.7C95.3 1289.3 190.7 1276.7 285.8 1248.3C381 1220 476 1176 571.2 1151.5C666.3 1127 761.7 1122 857 1118.8C952.3 1115.7 1047.7 1114.3 1143 1142.5C1238.3 1170.7 1333.7 1228.3 1428.8 1204.7C1524 1181 1619 1076 1714.2 1021.2C1809.3 966.3 1904.7 961.7 1952.3 959.3L2000 957L2000 1501L1952.3 1501C1904.7 1501 1809.3 1501 1714.2 1501C1619 1501 1524 1501 1428.8 1501C1333.7 1501 1238.3 1501 1143 1501C1047.7 1501 952.3 1501 857 1501C761.7 1501 666.3 1501 571.2 1501C476 1501 381 1501 285.8 1501C190.7 1501 95.3 1501 47.7 1501L0 1501Z" fill="#360e93" stroke-linecap="round" stroke-linejoin="miter"></path></svg>